<?xml version="1.0" encoding="utf-8"?>
<svg version="1.1" xmlns:xlink="http://www.w3.org/1999/xlink" width="12px" height="12px" viewBox="717 77  12 12" xmlns="http://www.w3.org/2000/svg">
  <path d="M 717.5 81  A 3.5 3.5 0 0 1 721 77.5 L 725 77.5  A 3.5 3.5 0 0 1 728.5 81 L 728.5 85  A 3.5 3.5 0 0 1 725 88.5 L 721 88.5  A 3.5 3.5 0 0 1 717.5 85 L 717.5 81  Z " fill-rule="nonzero" fill="#f0f0f0" stroke="none" />
  <path d="M 717.5 81  A 3.5 3.5 0 0 1 721 77.5 L 725 77.5  A 3.5 3.5 0 0 1 728.5 81 L 728.5 85  A 3.5 3.5 0 0 1 725 88.5 L 721 88.5  A 3.5 3.5 0 0 1 717.5 85 L 717.5 81  Z " stroke-width="1" stroke="#797979" fill="none" />
</svg>