<?xml version="1.0" encoding="utf-8"?>
<svg version="1.1" xmlns:xlink="http://www.w3.org/1999/xlink" width="12px" height="12px" viewBox="92 56.5  12 12" xmlns="http://www.w3.org/2000/svg">
  <path d="M 98 56.5  C 101.36 56.5  104 59.14  104 62.5  C 104 65.86  101.36 68.5  98 68.5  C 94.64 68.5  92 65.86  92 62.5  C 92 59.14  94.64 56.5  98 56.5  Z " fill-rule="nonzero" fill="#ffffff" stroke="none" />
  <path d="M 98 57  C 101.08 57  103.5 59.42  103.5 62.5  C 103.5 65.58  101.08 68  98 68  C 94.92 68  92.5 65.58  92.5 62.5  C 92.5 59.42  94.92 57  98 57  Z " stroke-width="1" stroke="#797979" fill="none" />
  <path d="M 98 65.5  C 96.32 65.5  95 64.18  95 62.5  C 95 60.82  96.32 59.5  98 59.5  C 99.68 59.5  101 60.82  101 62.5  C 101 64.18  99.68 65.5  98 65.5  " fill-rule="nonzero" fill="#797979" stroke="none" />
</svg>