<?xml version="1.0" encoding="utf-8"?>
<svg version="1.1" xmlns:xlink="http://www.w3.org/1999/xlink" width="12px" height="12px" viewBox="450 195.5  12 12" xmlns="http://www.w3.org/2000/svg">
  <path d="M 450.5 199.5  A 3.5 3.5 0 0 1 454 196 L 458 196  A 3.5 3.5 0 0 1 461.5 199.5 L 461.5 203.5  A 3.5 3.5 0 0 1 458 207 L 454 207  A 3.5 3.5 0 0 1 450.5 203.5 L 450.5 199.5  Z " fill-rule="nonzero" fill="#f0f0f0" stroke="none" />
  <path d="M 450.5 199.5  A 3.5 3.5 0 0 1 454 196 L 458 196  A 3.5 3.5 0 0 1 461.5 199.5 L 461.5 203.5  A 3.5 3.5 0 0 1 458 207 L 454 207  A 3.5 3.5 0 0 1 450.5 203.5 L 450.5 199.5  Z " stroke-width="1" stroke="#797979" fill="none" />
</svg>