<?xml version="1.0" encoding="utf-8"?>
<svg version="1.1" xmlns:xlink="http://www.w3.org/1999/xlink" width="12px" height="12px" viewBox="695 173.5  12 12" xmlns="http://www.w3.org/2000/svg">
  <path d="M 695.5 177.5  A 3.5 3.5 0 0 1 699 174 L 703 174  A 3.5 3.5 0 0 1 706.5 177.5 L 706.5 181.5  A 3.5 3.5 0 0 1 703 185 L 699 185  A 3.5 3.5 0 0 1 695.5 181.5 L 695.5 177.5  Z " fill-rule="nonzero" fill="#ffffff" stroke="none" />
  <path d="M 695.5 177.5  A 3.5 3.5 0 0 1 699 174 L 703 174  A 3.5 3.5 0 0 1 706.5 177.5 L 706.5 181.5  A 3.5 3.5 0 0 1 703 185 L 699 185  A 3.5 3.5 0 0 1 695.5 181.5 L 695.5 177.5  Z " stroke-width="1" stroke="#797979" fill="none" />
  <path d="M 697.571428571429 179.5  L 700.142857142857 182.071428571429  " stroke-width="2.57142857142857" stroke="#797979" fill="none" />
  <path d="M 700.142857142857 182.071428571429  L 704.428571428571 176.071428571429  " stroke-width="2.57142857142857" stroke="#797979" fill="none" />
</svg>