<?xml version="1.0" encoding="utf-8"?>
<svg version="1.1" xmlns:xlink="http://www.w3.org/1999/xlink" width="12px" height="12px" viewBox="574 195.5  12 12" xmlns="http://www.w3.org/2000/svg">
  <path d="M 574.5 199.5  A 3.5 3.5 0 0 1 578 196 L 582 196  A 3.5 3.5 0 0 1 585.5 199.5 L 585.5 203.5  A 3.5 3.5 0 0 1 582 207 L 578 207  A 3.5 3.5 0 0 1 574.5 203.5 L 574.5 199.5  Z " fill-rule="nonzero" fill="#ffffff" stroke="none" />
  <path d="M 574.5 199.5  A 3.5 3.5 0 0 1 578 196 L 582 196  A 3.5 3.5 0 0 1 585.5 199.5 L 585.5 203.5  A 3.5 3.5 0 0 1 582 207 L 578 207  A 3.5 3.5 0 0 1 574.5 203.5 L 574.5 199.5  Z " stroke-width="1" stroke="#797979" fill="none" />
  <path d="M 576.571428571429 201.5  L 579.142857142857 204.071428571429  " stroke-width="2.57142857142857" stroke="#797979" fill="none" />
  <path d="M 579.142857142857 204.071428571429  L 583.428571428571 198.071428571429  " stroke-width="2.57142857142857" stroke="#797979" fill="none" />
</svg>