<?xml version="1.0" encoding="utf-8"?>
<svg version="1.1" xmlns:xlink="http://www.w3.org/1999/xlink" width="12px" height="12px" viewBox="574 173.5  12 12" xmlns="http://www.w3.org/2000/svg">
  <path d="M 574.5 177.5  A 3.5 3.5 0 0 1 578 174 L 582 174  A 3.5 3.5 0 0 1 585.5 177.5 L 585.5 181.5  A 3.5 3.5 0 0 1 582 185 L 578 185  A 3.5 3.5 0 0 1 574.5 181.5 L 574.5 177.5  Z " fill-rule="nonzero" fill="#f0f0f0" stroke="none" />
  <path d="M 574.5 177.5  A 3.5 3.5 0 0 1 578 174 L 582 174  A 3.5 3.5 0 0 1 585.5 177.5 L 585.5 181.5  A 3.5 3.5 0 0 1 582 185 L 578 185  A 3.5 3.5 0 0 1 574.5 181.5 L 574.5 177.5  Z " stroke-width="1" stroke="#797979" fill="none" />
</svg>