<?xml version="1.0" encoding="utf-8"?>
<svg version="1.1" xmlns:xlink="http://www.w3.org/1999/xlink" width="12px" height="12px" viewBox="695 195.5  12 12" xmlns="http://www.w3.org/2000/svg">
  <path d="M 695.5 199.5  A 3.5 3.5 0 0 1 699 196 L 703 196  A 3.5 3.5 0 0 1 706.5 199.5 L 706.5 203.5  A 3.5 3.5 0 0 1 703 207 L 699 207  A 3.5 3.5 0 0 1 695.5 203.5 L 695.5 199.5  Z " fill-rule="nonzero" fill="#ffffff" stroke="none" />
  <path d="M 695.5 199.5  A 3.5 3.5 0 0 1 699 196 L 703 196  A 3.5 3.5 0 0 1 706.5 199.5 L 706.5 203.5  A 3.5 3.5 0 0 1 703 207 L 699 207  A 3.5 3.5 0 0 1 695.5 203.5 L 695.5 199.5  Z " stroke-width="1" stroke="#797979" fill="none" />
  <path d="M 697.571428571429 201.5  L 700.142857142857 204.071428571429  " stroke-width="2.57142857142857" stroke="#797979" fill="none" />
  <path d="M 700.142857142857 204.071428571429  L 704.428571428571 198.071428571429  " stroke-width="2.57142857142857" stroke="#797979" fill="none" />
</svg>