<?xml version="1.0" encoding="utf-8"?>
<svg version="1.1" xmlns:xlink="http://www.w3.org/1999/xlink" width="12px" height="12px" viewBox="868 212.5  12 12" xmlns="http://www.w3.org/2000/svg">
  <path d="M 868.5 216.5  A 3.5 3.5 0 0 1 872 213 L 876 213  A 3.5 3.5 0 0 1 879.5 216.5 L 879.5 220.5  A 3.5 3.5 0 0 1 876 224 L 872 224  A 3.5 3.5 0 0 1 868.5 220.5 L 868.5 216.5  Z " fill-rule="nonzero" fill="#ffffff" stroke="none" />
  <path d="M 868.5 216.5  A 3.5 3.5 0 0 1 872 213 L 876 213  A 3.5 3.5 0 0 1 879.5 216.5 L 879.5 220.5  A 3.5 3.5 0 0 1 876 224 L 872 224  A 3.5 3.5 0 0 1 868.5 220.5 L 868.5 216.5  Z " stroke-width="1" stroke="#797979" fill="none" />
</svg>