<?xml version="1.0" encoding="utf-8"?>
<svg version="1.1" xmlns:xlink="http://www.w3.org/1999/xlink" width="12px" height="12px" viewBox="832 187.5  12 12" xmlns="http://www.w3.org/2000/svg">
  <path d="M 832.5 191.5  A 3.5 3.5 0 0 1 836 188 L 840 188  A 3.5 3.5 0 0 1 843.5 191.5 L 843.5 195.5  A 3.5 3.5 0 0 1 840 199 L 836 199  A 3.5 3.5 0 0 1 832.5 195.5 L 832.5 191.5  Z " fill-rule="nonzero" fill="#f0f0f0" stroke="none" />
  <path d="M 832.5 191.5  A 3.5 3.5 0 0 1 836 188 L 840 188  A 3.5 3.5 0 0 1 843.5 191.5 L 843.5 195.5  A 3.5 3.5 0 0 1 840 199 L 836 199  A 3.5 3.5 0 0 1 832.5 195.5 L 832.5 191.5  Z " stroke-width="1" stroke="#797979" fill="none" />
</svg>