<?xml version="1.0" encoding="utf-8"?>
<svg version="1.1" xmlns:xlink="http://www.w3.org/1999/xlink" width="12px" height="12px" viewBox="574 212.5  12 12" xmlns="http://www.w3.org/2000/svg">
  <path d="M 574.5 216.5  A 3.5 3.5 0 0 1 578 213 L 582 213  A 3.5 3.5 0 0 1 585.5 216.5 L 585.5 220.5  A 3.5 3.5 0 0 1 582 224 L 578 224  A 3.5 3.5 0 0 1 574.5 220.5 L 574.5 216.5  Z " fill-rule="nonzero" fill="#f0f0f0" stroke="none" />
  <path d="M 574.5 216.5  A 3.5 3.5 0 0 1 578 213 L 582 213  A 3.5 3.5 0 0 1 585.5 216.5 L 585.5 220.5  A 3.5 3.5 0 0 1 582 224 L 578 224  A 3.5 3.5 0 0 1 574.5 220.5 L 574.5 216.5  Z " stroke-width="1" stroke="#797979" fill="none" />
</svg>