<?xml version="1.0" encoding="utf-8"?>
<svg version="1.1" xmlns:xlink="http://www.w3.org/1999/xlink" width="12px" height="12px" viewBox="695 160.5  12 12" xmlns="http://www.w3.org/2000/svg">
  <path d="M 695.5 164.5  A 3.5 3.5 0 0 1 699 161 L 703 161  A 3.5 3.5 0 0 1 706.5 164.5 L 706.5 168.5  A 3.5 3.5 0 0 1 703 172 L 699 172  A 3.5 3.5 0 0 1 695.5 168.5 L 695.5 164.5  Z " fill-rule="nonzero" fill="#ffffff" stroke="none" />
  <path d="M 695.5 164.5  A 3.5 3.5 0 0 1 699 161 L 703 161  A 3.5 3.5 0 0 1 706.5 164.5 L 706.5 168.5  A 3.5 3.5 0 0 1 703 172 L 699 172  A 3.5 3.5 0 0 1 695.5 168.5 L 695.5 164.5  Z " stroke-width="1" stroke="#797979" fill="none" />
  <path d="M 697.571428571429 166.5  L 700.142857142857 169.071428571429  " stroke-width="2.57142857142857" stroke="#797979" fill="none" />
  <path d="M 700.142857142857 169.071428571429  L 704.428571428571 163.071428571429  " stroke-width="2.57142857142857" stroke="#797979" fill="none" />
</svg>