<?xml version="1.0" encoding="utf-8"?>
<svg version="1.1" xmlns:xlink="http://www.w3.org/1999/xlink" width="12px" height="12px" viewBox="695 182.5  12 12" xmlns="http://www.w3.org/2000/svg">
  <path d="M 695.5 186.5  A 3.5 3.5 0 0 1 699 183 L 703 183  A 3.5 3.5 0 0 1 706.5 186.5 L 706.5 190.5  A 3.5 3.5 0 0 1 703 194 L 699 194  A 3.5 3.5 0 0 1 695.5 190.5 L 695.5 186.5  Z " fill-rule="nonzero" fill="#ffffff" stroke="none" />
  <path d="M 695.5 186.5  A 3.5 3.5 0 0 1 699 183 L 703 183  A 3.5 3.5 0 0 1 706.5 186.5 L 706.5 190.5  A 3.5 3.5 0 0 1 703 194 L 699 194  A 3.5 3.5 0 0 1 695.5 190.5 L 695.5 186.5  Z " stroke-width="1" stroke="#797979" fill="none" />
  <path d="M 697.571428571429 188.5  L 700.142857142857 191.071428571429  " stroke-width="2.57142857142857" stroke="#797979" fill="none" />
  <path d="M 700.142857142857 191.071428571429  L 704.428571428571 185.071428571429  " stroke-width="2.57142857142857" stroke="#797979" fill="none" />
</svg>