<?xml version="1.0" encoding="utf-8"?>
<svg version="1.1" xmlns:xlink="http://www.w3.org/1999/xlink" width="12px" height="12px" viewBox="497 135.5  12 12" xmlns="http://www.w3.org/2000/svg">
  <path d="M 497.5 139.5  A 3.5 3.5 0 0 1 501 136 L 505 136  A 3.5 3.5 0 0 1 508.5 139.5 L 508.5 143.5  A 3.5 3.5 0 0 1 505 147 L 501 147  A 3.5 3.5 0 0 1 497.5 143.5 L 497.5 139.5  Z " fill-rule="nonzero" fill="#ffffff" stroke="none" />
  <path d="M 497.5 139.5  A 3.5 3.5 0 0 1 501 136 L 505 136  A 3.5 3.5 0 0 1 508.5 139.5 L 508.5 143.5  A 3.5 3.5 0 0 1 505 147 L 501 147  A 3.5 3.5 0 0 1 497.5 143.5 L 497.5 139.5  Z " stroke-width="1" stroke="#797979" fill="none" />
</svg>