<?xml version="1.0" encoding="utf-8"?>
<svg version="1.1" xmlns:xlink="http://www.w3.org/1999/xlink" width="12px" height="12px" viewBox="851 365.5  12 12" xmlns="http://www.w3.org/2000/svg">
  <path d="M 857 365.5  C 860.36 365.5  863 368.14  863 371.5  C 863 374.86  860.36 377.5  857 377.5  C 853.64 377.5  851 374.86  851 371.5  C 851 368.14  853.64 365.5  857 365.5  Z " fill-rule="nonzero" fill="#ffffff" stroke="none" />
  <path d="M 857 366  C 860.08 366  862.5 368.42  862.5 371.5  C 862.5 374.58  860.08 377  857 377  C 853.92 377  851.5 374.58  851.5 371.5  C 851.5 368.42  853.92 366  857 366  Z " stroke-width="1" stroke="#797979" fill="none" />
  <path d="M 857 374.5  C 855.32 374.5  854 373.18  854 371.5  C 854 369.82  855.32 368.5  857 368.5  C 858.68 368.5  860 369.82  860 371.5  C 860 373.18  858.68 374.5  857 374.5  " fill-rule="nonzero" fill="#797979" stroke="none" />
</svg>