<?xml version="1.0" encoding="utf-8"?>
<svg version="1.1" xmlns:xlink="http://www.w3.org/1999/xlink" width="12px" height="12px" viewBox="963 140.5  12 12" xmlns="http://www.w3.org/2000/svg">
  <path d="M 963.5 144.5  A 3.5 3.5 0 0 1 967 141 L 971 141  A 3.5 3.5 0 0 1 974.5 144.5 L 974.5 148.5  A 3.5 3.5 0 0 1 971 152 L 967 152  A 3.5 3.5 0 0 1 963.5 148.5 L 963.5 144.5  Z " fill-rule="nonzero" fill="#ffffff" stroke="none" />
  <path d="M 963.5 144.5  A 3.5 3.5 0 0 1 967 141 L 971 141  A 3.5 3.5 0 0 1 974.5 144.5 L 974.5 148.5  A 3.5 3.5 0 0 1 971 152 L 967 152  A 3.5 3.5 0 0 1 963.5 148.5 L 963.5 144.5  Z " stroke-width="1" stroke="#797979" fill="none" />
</svg>