<?xml version="1.0" encoding="utf-8"?>
<svg version="1.1" xmlns:xlink="http://www.w3.org/1999/xlink" width="12px" height="12px" viewBox="827 77  12 12" xmlns="http://www.w3.org/2000/svg">
  <path d="M 827.5 81  A 3.5 3.5 0 0 1 831 77.5 L 835 77.5  A 3.5 3.5 0 0 1 838.5 81 L 838.5 85  A 3.5 3.5 0 0 1 835 88.5 L 831 88.5  A 3.5 3.5 0 0 1 827.5 85 L 827.5 81  Z " fill-rule="nonzero" fill="#ffffff" stroke="none" />
  <path d="M 827.5 81  A 3.5 3.5 0 0 1 831 77.5 L 835 77.5  A 3.5 3.5 0 0 1 838.5 81 L 838.5 85  A 3.5 3.5 0 0 1 835 88.5 L 831 88.5  A 3.5 3.5 0 0 1 827.5 85 L 827.5 81  Z " stroke-width="1" stroke="#797979" fill="none" />
  <path d="M 829.571428571429 83  L 832.142857142857 85.5714285714286  " stroke-width="2.57142857142857" stroke="#797979" fill="none" />
  <path d="M 832.142857142857 85.5714285714286  L 836.428571428571 79.5714285714286  " stroke-width="2.57142857142857" stroke="#797979" fill="none" />
</svg>