<?xml version="1.0" encoding="utf-8"?>
<svg version="1.1" xmlns:xlink="http://www.w3.org/1999/xlink" width="12px" height="12px" viewBox="255 2  12 12" xmlns="http://www.w3.org/2000/svg">
  <path d="M 261 2  C 264.36 2  267 4.64  267 8  C 267 11.36  264.36 14  261 14  C 257.64 14  255 11.36  255 8  C 255 4.64  257.64 2  261 2  Z " fill-rule="nonzero" fill="#ffffff" stroke="none" />
  <path d="M 261 2.5  C 264.08 2.5  266.5 4.92  266.5 8  C 266.5 11.08  264.08 13.5  261 13.5  C 257.92 13.5  255.5 11.08  255.5 8  C 255.5 4.92  257.92 2.5  261 2.5  Z " stroke-width="1" stroke="#797979" fill="none" />
  <path d="M 261 11  C 259.32 11  258 9.68  258 8  C 258 6.32  259.32 5  261 5  C 262.68 5  264 6.32  264 8  C 264 9.68  262.68 11  261 11  " fill-rule="nonzero" fill="#797979" stroke="none" />
</svg>