<?xml version="1.0" encoding="utf-8"?>
<svg version="1.1" xmlns:xlink="http://www.w3.org/1999/xlink" width="12px" height="12px" viewBox="72 2  12 12" xmlns="http://www.w3.org/2000/svg">
  <path d="M 78 2  C 81.36 2  84 4.64  84 8  C 84 11.36  81.36 14  78 14  C 74.64 14  72 11.36  72 8  C 72 4.64  74.64 2  78 2  Z " fill-rule="nonzero" fill="#ffffff" stroke="none" />
  <path d="M 78 2.5  C 81.08 2.5  83.5 4.92  83.5 8  C 83.5 11.08  81.08 13.5  78 13.5  C 74.92 13.5  72.5 11.08  72.5 8  C 72.5 4.92  74.92 2.5  78 2.5  Z " stroke-width="1" stroke="#797979" fill="none" />
  <path d="M 78 11  C 76.32 11  75 9.68  75 8  C 75 6.32  76.32 5  78 5  C 79.68 5  81 6.32  81 8  C 81 9.68  79.68 11  78 11  " fill-rule="nonzero" fill="#797979" stroke="none" />
</svg>