<?xml version="1.0" encoding="utf-8"?>
<svg version="1.1" xmlns:xlink="http://www.w3.org/1999/xlink" width="12px" height="12px" viewBox="118 2  12 12" xmlns="http://www.w3.org/2000/svg">
  <path d="M 124 2  C 127.36 2  130 4.64  130 8  C 130 11.36  127.36 14  124 14  C 120.64 14  118 11.36  118 8  C 118 4.64  120.64 2  124 2  Z " fill-rule="nonzero" fill="#ffffff" stroke="none" />
  <path d="M 124 2.5  C 127.08 2.5  129.5 4.92  129.5 8  C 129.5 11.08  127.08 13.5  124 13.5  C 120.92 13.5  118.5 11.08  118.5 8  C 118.5 4.92  120.92 2.5  124 2.5  Z " stroke-width="1" stroke="#797979" fill="none" />
  <path d="M 124 11  C 122.32 11  121 9.68  121 8  C 121 6.32  122.32 5  124 5  C 125.68 5  127 6.32  127 8  C 127 9.68  125.68 11  124 11  " fill-rule="nonzero" fill="#797979" stroke="none" />
</svg>