<?xml version="1.0" encoding="utf-8"?>
<svg version="1.1" xmlns:xlink="http://www.w3.org/1999/xlink" width="12px" height="12px" viewBox="717 85  12 12" xmlns="http://www.w3.org/2000/svg">
  <path d="M 717.5 89  A 3.5 3.5 0 0 1 721 85.5 L 725 85.5  A 3.5 3.5 0 0 1 728.5 89 L 728.5 93  A 3.5 3.5 0 0 1 725 96.5 L 721 96.5  A 3.5 3.5 0 0 1 717.5 93 L 717.5 89  Z " fill-rule="nonzero" fill="#ffffff" stroke="none" />
  <path d="M 717.5 89  A 3.5 3.5 0 0 1 721 85.5 L 725 85.5  A 3.5 3.5 0 0 1 728.5 89 L 728.5 93  A 3.5 3.5 0 0 1 725 96.5 L 721 96.5  A 3.5 3.5 0 0 1 717.5 93 L 717.5 89  Z " stroke-width="1" stroke="#797979" fill="none" />
  <path d="M 719.571428571429 91  L 722.142857142857 93.5714285714286  " stroke-width="2.57142857142857" stroke="#797979" fill="none" />
  <path d="M 722.142857142857 93.5714285714286  L 726.428571428571 87.5714285714286  " stroke-width="2.57142857142857" stroke="#797979" fill="none" />
</svg>