<?xml version="1.0" encoding="utf-8"?>
<svg version="1.1" xmlns:xlink="http://www.w3.org/1999/xlink" width="12px" height="12px" viewBox="452 173.5  12 12" xmlns="http://www.w3.org/2000/svg">
  <path d="M 452.5 177.5  A 3.5 3.5 0 0 1 456 174 L 460 174  A 3.5 3.5 0 0 1 463.5 177.5 L 463.5 181.5  A 3.5 3.5 0 0 1 460 185 L 456 185  A 3.5 3.5 0 0 1 452.5 181.5 L 452.5 177.5  Z " fill-rule="nonzero" fill="#ffffff" stroke="none" />
  <path d="M 452.5 177.5  A 3.5 3.5 0 0 1 456 174 L 460 174  A 3.5 3.5 0 0 1 463.5 177.5 L 463.5 181.5  A 3.5 3.5 0 0 1 460 185 L 456 185  A 3.5 3.5 0 0 1 452.5 181.5 L 452.5 177.5  Z " stroke-width="1" stroke="#797979" fill="none" />
</svg>