<?xml version="1.0" encoding="utf-8"?>
<svg version="1.1" xmlns:xlink="http://www.w3.org/1999/xlink" width="12px" height="12px" viewBox="868 173.5  12 12" xmlns="http://www.w3.org/2000/svg">
  <path d="M 868.5 177.5  A 3.5 3.5 0 0 1 872 174 L 876 174  A 3.5 3.5 0 0 1 879.5 177.5 L 879.5 181.5  A 3.5 3.5 0 0 1 876 185 L 872 185  A 3.5 3.5 0 0 1 868.5 181.5 L 868.5 177.5  Z " fill-rule="nonzero" fill="#ffffff" stroke="none" />
  <path d="M 868.5 177.5  A 3.5 3.5 0 0 1 872 174 L 876 174  A 3.5 3.5 0 0 1 879.5 177.5 L 879.5 181.5  A 3.5 3.5 0 0 1 876 185 L 872 185  A 3.5 3.5 0 0 1 868.5 181.5 L 868.5 177.5  Z " stroke-width="1" stroke="#797979" fill="none" />
</svg>