<?xml version="1.0" encoding="utf-8"?>
<svg version="1.1" xmlns:xlink="http://www.w3.org/1999/xlink" width="12px" height="12px" viewBox="347 173.5  12 12" xmlns="http://www.w3.org/2000/svg">
  <path d="M 347.5 177.5  A 3.5 3.5 0 0 1 351 174 L 355 174  A 3.5 3.5 0 0 1 358.5 177.5 L 358.5 181.5  A 3.5 3.5 0 0 1 355 185 L 351 185  A 3.5 3.5 0 0 1 347.5 181.5 L 347.5 177.5  Z " fill-rule="nonzero" fill="#ffffff" stroke="none" />
  <path d="M 347.5 177.5  A 3.5 3.5 0 0 1 351 174 L 355 174  A 3.5 3.5 0 0 1 358.5 177.5 L 358.5 181.5  A 3.5 3.5 0 0 1 355 185 L 351 185  A 3.5 3.5 0 0 1 347.5 181.5 L 347.5 177.5  Z " stroke-width="1" stroke="#797979" fill="none" />
</svg>