<?xml version="1.0" encoding="utf-8"?>
<svg version="1.1" xmlns:xlink="http://www.w3.org/1999/xlink" width="12px" height="12px" viewBox="868 195.5  12 12" xmlns="http://www.w3.org/2000/svg">
  <path d="M 868.5 199.5  A 3.5 3.5 0 0 1 872 196 L 876 196  A 3.5 3.5 0 0 1 879.5 199.5 L 879.5 203.5  A 3.5 3.5 0 0 1 876 207 L 872 207  A 3.5 3.5 0 0 1 868.5 203.5 L 868.5 199.5  Z " fill-rule="nonzero" fill="#ffffff" stroke="none" />
  <path d="M 868.5 199.5  A 3.5 3.5 0 0 1 872 196 L 876 196  A 3.5 3.5 0 0 1 879.5 199.5 L 879.5 203.5  A 3.5 3.5 0 0 1 876 207 L 872 207  A 3.5 3.5 0 0 1 868.5 203.5 L 868.5 199.5  Z " stroke-width="1" stroke="#797979" fill="none" />
  <path d="M 870.571428571429 201.5  L 873.142857142857 204.071428571429  " stroke-width="2.57142857142857" stroke="#797979" fill="none" />
  <path d="M 873.142857142857 204.071428571429  L 877.428571428571 198.071428571429  " stroke-width="2.57142857142857" stroke="#797979" fill="none" />
</svg>