<?xml version="1.0" encoding="utf-8"?>
<svg version="1.1" xmlns:xlink="http://www.w3.org/1999/xlink" width="12px" height="12px" viewBox="497 148.5  12 12" xmlns="http://www.w3.org/2000/svg">
  <path d="M 497.5 152.5  A 3.5 3.5 0 0 1 501 149 L 505 149  A 3.5 3.5 0 0 1 508.5 152.5 L 508.5 156.5  A 3.5 3.5 0 0 1 505 160 L 501 160  A 3.5 3.5 0 0 1 497.5 156.5 L 497.5 152.5  Z " fill-rule="nonzero" fill="#ffffff" stroke="none" />
  <path d="M 497.5 152.5  A 3.5 3.5 0 0 1 501 149 L 505 149  A 3.5 3.5 0 0 1 508.5 152.5 L 508.5 156.5  A 3.5 3.5 0 0 1 505 160 L 501 160  A 3.5 3.5 0 0 1 497.5 156.5 L 497.5 152.5  Z " stroke-width="1" stroke="#797979" fill="none" />
  <path d="M 499.571428571429 154.5  L 502.142857142857 157.071428571429  " stroke-width="2.57142857142857" stroke="#797979" fill="none" />
  <path d="M 502.142857142857 157.071428571429  L 506.428571428571 151.071428571429  " stroke-width="2.57142857142857" stroke="#797979" fill="none" />
</svg>