<?xml version="1.0" encoding="utf-8"?>
<svg version="1.1" xmlns:xlink="http://www.w3.org/1999/xlink" width="12px" height="12px" viewBox="832 148.5  12 12" xmlns="http://www.w3.org/2000/svg">
  <path d="M 832.5 152.5  A 3.5 3.5 0 0 1 836 149 L 840 149  A 3.5 3.5 0 0 1 843.5 152.5 L 843.5 156.5  A 3.5 3.5 0 0 1 840 160 L 836 160  A 3.5 3.5 0 0 1 832.5 156.5 L 832.5 152.5  Z " fill-rule="nonzero" fill="#ffffff" stroke="none" />
  <path d="M 832.5 152.5  A 3.5 3.5 0 0 1 836 149 L 840 149  A 3.5 3.5 0 0 1 843.5 152.5 L 843.5 156.5  A 3.5 3.5 0 0 1 840 160 L 836 160  A 3.5 3.5 0 0 1 832.5 156.5 L 832.5 152.5  Z " stroke-width="1" stroke="#797979" fill="none" />
  <path d="M 834.571428571429 154.5  L 837.142857142857 157.071428571429  " stroke-width="2.57142857142857" stroke="#797979" fill="none" />
  <path d="M 837.142857142857 157.071428571429  L 841.428571428571 151.071428571429  " stroke-width="2.57142857142857" stroke="#797979" fill="none" />
</svg>