<?xml version="1.0" encoding="utf-8"?>
<svg version="1.1" xmlns:xlink="http://www.w3.org/1999/xlink" width="12px" height="12px" viewBox="450 234.5  12 12" xmlns="http://www.w3.org/2000/svg">
  <path d="M 450.5 238.5  A 3.5 3.5 0 0 1 454 235 L 458 235  A 3.5 3.5 0 0 1 461.5 238.5 L 461.5 242.5  A 3.5 3.5 0 0 1 458 246 L 454 246  A 3.5 3.5 0 0 1 450.5 242.5 L 450.5 238.5  Z " fill-rule="nonzero" fill="#ffffff" stroke="none" />
  <path d="M 450.5 238.5  A 3.5 3.5 0 0 1 454 235 L 458 235  A 3.5 3.5 0 0 1 461.5 238.5 L 461.5 242.5  A 3.5 3.5 0 0 1 458 246 L 454 246  A 3.5 3.5 0 0 1 450.5 242.5 L 450.5 238.5  Z " stroke-width="1" stroke="#797979" fill="none" />
  <path d="M 452.571428571429 240.5  L 455.142857142857 243.071428571429  " stroke-width="2.57142857142857" stroke="#797979" fill="none" />
  <path d="M 455.142857142857 243.071428571429  L 459.428571428571 237.071428571429  " stroke-width="2.57142857142857" stroke="#797979" fill="none" />
</svg>