<?xml version="1.0" encoding="utf-8"?>
<svg version="1.1" xmlns:xlink="http://www.w3.org/1999/xlink" width="12px" height="12px" viewBox="347 212.5  12 12" xmlns="http://www.w3.org/2000/svg">
  <path d="M 347.5 216.5  A 3.5 3.5 0 0 1 351 213 L 355 213  A 3.5 3.5 0 0 1 358.5 216.5 L 358.5 220.5  A 3.5 3.5 0 0 1 355 224 L 351 224  A 3.5 3.5 0 0 1 347.5 220.5 L 347.5 216.5  Z " fill-rule="nonzero" fill="#f0f0f0" stroke="none" />
  <path d="M 347.5 216.5  A 3.5 3.5 0 0 1 351 213 L 355 213  A 3.5 3.5 0 0 1 358.5 216.5 L 358.5 220.5  A 3.5 3.5 0 0 1 355 224 L 351 224  A 3.5 3.5 0 0 1 347.5 220.5 L 347.5 216.5  Z " stroke-width="1" stroke="#797979" fill="none" />
</svg>