<?xml version="1.0" encoding="utf-8"?>
<svg version="1.1" xmlns:xlink="http://www.w3.org/1999/xlink" width="12px" height="12px" viewBox="497 187.5  12 12" xmlns="http://www.w3.org/2000/svg">
  <path d="M 497.5 191.5  A 3.5 3.5 0 0 1 501 188 L 505 188  A 3.5 3.5 0 0 1 508.5 191.5 L 508.5 195.5  A 3.5 3.5 0 0 1 505 199 L 501 199  A 3.5 3.5 0 0 1 497.5 195.5 L 497.5 191.5  Z " fill-rule="nonzero" fill="#ffffff" stroke="none" />
  <path d="M 497.5 191.5  A 3.5 3.5 0 0 1 501 188 L 505 188  A 3.5 3.5 0 0 1 508.5 191.5 L 508.5 195.5  A 3.5 3.5 0 0 1 505 199 L 501 199  A 3.5 3.5 0 0 1 497.5 195.5 L 497.5 191.5  Z " stroke-width="1" stroke="#797979" fill="none" />
</svg>