<?xml version="1.0" encoding="utf-8"?>
<svg version="1.1" xmlns:xlink="http://www.w3.org/1999/xlink" width="12px" height="12px" viewBox="711 166.5  12 12" xmlns="http://www.w3.org/2000/svg">
  <path d="M 711.5 170.5  A 3.5 3.5 0 0 1 715 167 L 719 167  A 3.5 3.5 0 0 1 722.5 170.5 L 722.5 174.5  A 3.5 3.5 0 0 1 719 178 L 715 178  A 3.5 3.5 0 0 1 711.5 174.5 L 711.5 170.5  Z " fill-rule="nonzero" fill="#ffffff" stroke="none" />
  <path d="M 711.5 170.5  A 3.5 3.5 0 0 1 715 167 L 719 167  A 3.5 3.5 0 0 1 722.5 170.5 L 722.5 174.5  A 3.5 3.5 0 0 1 719 178 L 715 178  A 3.5 3.5 0 0 1 711.5 174.5 L 711.5 170.5  Z " stroke-width="1" stroke="#797979" fill="none" />
  <path d="M 713.571428571429 172.5  L 716.142857142857 175.071428571429  " stroke-width="2.57142857142857" stroke="#797979" fill="none" />
  <path d="M 716.142857142857 175.071428571429  L 720.428571428571 169.071428571429  " stroke-width="2.57142857142857" stroke="#797979" fill="none" />
</svg>