<?xml version="1.0" encoding="utf-8"?>
<svg version="1.1" xmlns:xlink="http://www.w3.org/1999/xlink" width="12px" height="12px" viewBox="711 166.5  12 12" xmlns="http://www.w3.org/2000/svg">
  <path d="M 711.5 170.5  A 3.5 3.5 0 0 1 715 167 L 719 167  A 3.5 3.5 0 0 1 722.5 170.5 L 722.5 174.5  A 3.5 3.5 0 0 1 719 178 L 715 178  A 3.5 3.5 0 0 1 711.5 174.5 L 711.5 170.5  Z " fill-rule="nonzero" fill="#ffffff" stroke="none" />
  <path d="M 711.5 170.5  A 3.5 3.5 0 0 1 715 167 L 719 167  A 3.5 3.5 0 0 1 722.5 170.5 L 722.5 174.5  A 3.5 3.5 0 0 1 719 178 L 715 178  A 3.5 3.5 0 0 1 711.5 174.5 L 711.5 170.5  Z " stroke-width="1" stroke="#797979" fill="none" />
</svg>