<?xml version="1.0" encoding="utf-8"?>
<svg version="1.1" xmlns:xlink="http://www.w3.org/1999/xlink" width="12px" height="17px" xmlns="http://www.w3.org/2000/svg">
  <g transform="matrix(1 0 0 1 -3 -52 )">
    <path d="M 11.7938144329897 8.10821643286573  C 11.9312714776632 8.22177688710755  12 8.35237140948564  12 8.5  C 12 8.64762859051436  11.9312714776632 8.77822311289245  11.7938144329897 8.89178356713427  L 2.18556701030928 16.8296593186373  C 2.04810996563574 16.9432197728791  1.89003436426117 17  1.71134020618557 17  C 1.53264604810997 17  1.3745704467354 16.9432197728791  1.23711340206186 16.8296593186373  L 0.206185567010309 15.9779559118236  C 0.0687285223367698 15.8643954575818  0 15.7338009352037  0 15.5861723446894  C 0 15.438543754175  0.0687285223367698 15.3079492317969  0.206185567010309 15.1943887775551  L 8.30927835051546 8.5  L 0.206185567010309 1.80561122244489  C 0.0687285223367698 1.69205076820307  0 1.56145624582498  0 1.41382765531062  C 0 1.26619906479626  0.0687285223367698 1.13560454241817  0.206185567010309 1.02204408817635  L 1.23711340206186 0.170340681362726  C 1.3745704467354 0.0567802271209079  1.53264604810997 0  1.71134020618557 0  C 1.89003436426117 0  2.04810996563574 0.0567802271209079  2.18556701030928 0.170340681362726  L 11.7938144329897 8.10821643286573  Z " fill-rule="nonzero" fill="#aaaaaa" stroke="none" transform="matrix(1 0 0 1 3 52 )" />
  </g>
</svg>