<?xml version="1.0" encoding="utf-8"?>
<svg version="1.1" xmlns:xlink="http://www.w3.org/1999/xlink" width="12px" height="12px" viewBox="901 365.5  12 12" xmlns="http://www.w3.org/2000/svg">
  <path d="M 907 365.5  C 910.36 365.5  913 368.14  913 371.5  C 913 374.86  910.36 377.5  907 377.5  C 903.64 377.5  901 374.86  901 371.5  C 901 368.14  903.64 365.5  907 365.5  Z " fill-rule="nonzero" fill="#ffffff" stroke="none" />
  <path d="M 907 366  C 910.08 366  912.5 368.42  912.5 371.5  C 912.5 374.58  910.08 377  907 377  C 903.92 377  901.5 374.58  901.5 371.5  C 901.5 368.42  903.92 366  907 366  Z " stroke-width="1" stroke="#797979" fill="none" />
  <path d="M 907 374.5  C 905.32 374.5  904 373.18  904 371.5  C 904 369.82  905.32 368.5  907 368.5  C 908.68 368.5  910 369.82  910 371.5  C 910 373.18  908.68 374.5  907 374.5  " fill-rule="nonzero" fill="#797979" stroke="none" />
</svg>