<?xml version="1.0" encoding="utf-8"?>
<svg version="1.1" xmlns:xlink="http://www.w3.org/1999/xlink" width="12px" height="12px" viewBox="847 66  12 12" xmlns="http://www.w3.org/2000/svg">
  <path d="M 847.5 70  A 3.5 3.5 0 0 1 851 66.5 L 855 66.5  A 3.5 3.5 0 0 1 858.5 70 L 858.5 74  A 3.5 3.5 0 0 1 855 77.5 L 851 77.5  A 3.5 3.5 0 0 1 847.5 74 L 847.5 70  Z " fill-rule="nonzero" fill="#f0f0f0" stroke="none" />
  <path d="M 847.5 70  A 3.5 3.5 0 0 1 851 66.5 L 855 66.5  A 3.5 3.5 0 0 1 858.5 70 L 858.5 74  A 3.5 3.5 0 0 1 855 77.5 L 851 77.5  A 3.5 3.5 0 0 1 847.5 74 L 847.5 70  Z " stroke-width="1" stroke="#797979" fill="none" />
</svg>