<?xml version="1.0" encoding="utf-8"?>
<svg version="1.1" xmlns:xlink="http://www.w3.org/1999/xlink" width="12px" height="12px" viewBox="827 85  12 12" xmlns="http://www.w3.org/2000/svg">
  <path d="M 827.5 89  A 3.5 3.5 0 0 1 831 85.5 L 835 85.5  A 3.5 3.5 0 0 1 838.5 89 L 838.5 93  A 3.5 3.5 0 0 1 835 96.5 L 831 96.5  A 3.5 3.5 0 0 1 827.5 93 L 827.5 89  Z " fill-rule="nonzero" fill="#ffffff" stroke="none" />
  <path d="M 827.5 89  A 3.5 3.5 0 0 1 831 85.5 L 835 85.5  A 3.5 3.5 0 0 1 838.5 89 L 838.5 93  A 3.5 3.5 0 0 1 835 96.5 L 831 96.5  A 3.5 3.5 0 0 1 827.5 93 L 827.5 89  Z " stroke-width="1" stroke="#797979" fill="none" />
</svg>