<?xml version="1.0" encoding="utf-8"?>
<svg version="1.1" xmlns:xlink="http://www.w3.org/1999/xlink" width="12px" height="12px" viewBox="827 66  12 12" xmlns="http://www.w3.org/2000/svg">
  <path d="M 827.5 70  A 3.5 3.5 0 0 1 831 66.5 L 835 66.5  A 3.5 3.5 0 0 1 838.5 70 L 838.5 74  A 3.5 3.5 0 0 1 835 77.5 L 831 77.5  A 3.5 3.5 0 0 1 827.5 74 L 827.5 70  Z " fill-rule="nonzero" fill="#f0f0f0" stroke="none" />
  <path d="M 827.5 70  A 3.5 3.5 0 0 1 831 66.5 L 835 66.5  A 3.5 3.5 0 0 1 838.5 70 L 838.5 74  A 3.5 3.5 0 0 1 835 77.5 L 831 77.5  A 3.5 3.5 0 0 1 827.5 74 L 827.5 70  Z " stroke-width="1" stroke="#797979" fill="none" />
</svg>